<svg width="256" height="48" viewBox="0 0 256 48" fill="none" xmlns="http://www.w3.org/2000/svg">
<path d="M73.0121 39.2668C70.5901 39.2668 68.39 38.6802 66.412 37.5068C64.4339 36.3335 62.8596 34.6068 61.6889 32.3268C60.5183 30.0468 59.9329 27.2535 59.9329 23.9468C59.9329 20.7468 60.4913 18.0335 61.6082 15.8068C62.7385 13.5802 64.2859 11.8935 66.2505 10.7468C68.2151 9.58684 70.4757 9.00684 73.0323 9.00684C75.5351 9.00684 77.7688 9.58684 79.7334 10.7468C81.7114 11.8935 83.2723 13.5802 84.4161 15.8068C85.5733 18.0335 86.1519 20.7468 86.1519 23.9468C86.1519 27.2535 85.58 30.0468 84.4363 32.3268C83.2925 34.6068 81.7316 36.3335 79.7536 37.5068C77.789 38.6802 75.5419 39.2668 73.0121 39.2668ZM73.0121 34.1268C74.4385 34.1268 75.7033 33.7668 76.8067 33.0468C77.9101 32.3135 78.778 31.2002 79.4105 29.7068C80.0563 28.2135 80.3793 26.3135 80.3793 24.0068C80.3793 21.8068 80.0631 19.9802 79.4306 18.5268C78.7982 17.0602 77.9236 15.9668 76.8067 15.2468C75.7033 14.5135 74.4452 14.1468 73.0323 14.1468C71.6867 14.1468 70.4555 14.5135 69.3386 15.2468C68.2353 15.9668 67.3539 17.0602 66.6945 18.5268C66.0352 19.9802 65.7055 21.8068 65.7055 24.0068C65.7055 25.7402 65.8939 27.2468 66.2707 28.5268C66.6609 29.7935 67.1857 30.8468 67.845 31.6868C68.5178 32.5135 69.2916 33.1268 70.1662 33.5268C71.0543 33.9268 72.0029 34.1268 73.0121 34.1268ZM101.872 38.9268C100.621 38.9268 99.5712 38.7135 98.7235 38.2868C97.8892 37.8602 97.2433 37.3335 96.7858 36.7068C96.3418 36.0668 96.0525 35.4335 95.9179 34.8068L93.839 34.8468L96.1803 32.3068C96.288 32.7335 96.5032 33.1202 96.8262 33.4668C97.1491 33.8002 97.5864 34.0668 98.1381 34.2668C98.6898 34.4535 99.3559 34.5468 100.136 34.5468C101.563 34.5468 102.7 34.0068 103.547 32.9268C104.395 31.8335 104.819 30.0802 104.819 27.6668C104.819 25.4935 104.415 23.8468 103.608 22.7268C102.801 21.6068 101.697 21.0468 100.298 21.0468C99.477 21.0468 98.7706 21.1602 98.1785 21.3868C97.5999 21.6135 97.1424 21.8868 96.806 22.2068C96.4696 22.5135 96.261 22.8135 96.1803 23.1068V21.5468C96.288 20.9202 96.4763 20.3068 96.7455 19.7068C97.0146 19.0935 97.3846 18.5402 97.8556 18.0468C98.34 17.5535 98.9455 17.1602 99.6721 16.8668C100.399 16.5735 101.267 16.4268 102.276 16.4268C104.012 16.4268 105.485 16.8935 106.696 17.8268C107.907 18.7602 108.829 20.0602 109.461 21.7268C110.107 23.3802 110.43 25.3002 110.43 27.4868C110.43 29.3535 110.208 31.0002 109.764 32.4268C109.32 33.8402 108.708 35.0335 107.927 36.0068C107.147 36.9668 106.239 37.6935 105.203 38.1868C104.166 38.6802 103.056 38.9268 101.872 38.9268ZM90.6297 46.7268V16.8468H96.0794L96.1803 20.0868V33.1668L95.9179 34.8068L96.1803 38.6868V46.7268H90.6297ZM124.09 38.9668C121.91 38.9668 120.04 38.5335 118.479 37.6668C116.918 36.7868 115.721 35.5135 114.886 33.8468C114.052 32.1668 113.635 30.1268 113.635 27.7268C113.635 25.3002 114.072 23.2468 114.947 21.5668C115.835 19.8868 117.066 18.6068 118.641 17.7268C120.228 16.8468 122.072 16.4068 124.171 16.4068C126.216 16.4068 127.945 16.8002 129.358 17.5868C130.785 18.3602 131.868 19.5135 132.608 21.0468C133.348 22.5668 133.718 24.4335 133.718 26.6468C133.718 27.0068 133.705 27.3468 133.678 27.6668C133.664 27.9868 133.644 28.3668 133.617 28.8068H119.125C119.26 30.8068 119.751 32.2735 120.599 33.2068C121.46 34.1402 122.577 34.6068 123.949 34.6068C125.16 34.6068 126.082 34.3468 126.714 33.8268C127.347 33.3068 127.744 32.6735 127.905 31.9268H133.254C133.133 33.3802 132.675 34.6402 131.881 35.7068C131.101 36.7602 130.045 37.5668 128.712 38.1268C127.394 38.6868 125.853 38.9668 124.09 38.9668ZM121.507 25.4268H128.289C128.235 23.9335 127.865 22.8002 127.179 22.0268C126.506 21.2535 125.429 20.8668 123.949 20.8668C122.321 20.8668 121.117 21.4268 120.336 22.5468C119.569 23.6535 119.152 25.2135 119.085 27.2268C119.192 26.5335 119.441 26.0602 119.832 25.8068C120.222 25.5535 120.78 25.4268 121.507 25.4268ZM137.797 38.6668V16.8468H142.702L143.227 25.0668L142.944 23.4068C143.106 22.2068 143.422 21.0735 143.893 20.0068C144.364 18.9268 145.07 18.0535 146.012 17.3868C146.968 16.7202 148.226 16.3868 149.787 16.3868C151.832 16.3868 153.447 17.0335 154.631 18.3268C155.815 19.6068 156.407 21.5668 156.407 24.2068V38.6668H150.836V26.2068C150.836 24.8868 150.708 23.8602 150.453 23.1268C150.21 22.3802 149.84 21.8535 149.343 21.5468C148.858 21.2402 148.239 21.0868 147.486 21.0868C146.571 21.0868 145.743 21.3668 145.003 21.9268C144.276 22.4868 143.738 23.1335 143.388 23.8668V38.6668H137.797ZM162.046 38.6668V9.58684H179.041L179.081 14.7068H164.528L167.657 11.5268V23.9668L164.528 21.9268H177.93V27.0068H165.961L167.657 25.1468V38.6668H162.046ZM191.364 38.9668C189.279 38.9668 187.462 38.5335 185.915 37.6668C184.367 36.8002 183.17 35.5268 182.322 33.8468C181.474 32.1535 181.05 30.0802 181.05 27.6268C181.05 25.3068 181.494 23.3068 182.382 21.6268C183.284 19.9468 184.522 18.6602 186.096 17.7668C187.671 16.8602 189.453 16.4068 191.445 16.4068C193.598 16.4068 195.441 16.8602 196.975 17.7668C198.523 18.6602 199.707 19.9468 200.528 21.6268C201.349 23.3068 201.759 25.3068 201.759 27.6268C201.759 30.0802 201.301 32.1535 200.386 33.8468C199.471 35.5268 198.227 36.8002 196.652 37.6668C195.092 38.5335 193.329 38.9668 191.364 38.9668ZM191.445 34.3468C192.817 34.3468 193.948 33.8402 194.836 32.8268C195.737 31.8135 196.188 30.0802 196.188 27.6268C196.188 25.3468 195.737 23.6802 194.836 22.6268C193.934 21.5602 192.777 21.0268 191.364 21.0268C189.992 21.0268 188.861 21.5535 187.973 22.6068C187.085 23.6602 186.641 25.3335 186.641 27.6268C186.641 29.9735 187.099 31.6802 188.014 32.7468C188.929 33.8135 190.072 34.3468 191.445 34.3468ZM205.997 38.6668V16.8468H210.902L211.426 25.3268L211.023 24.0868C211.144 23.0602 211.346 22.0868 211.628 21.1668C211.924 20.2468 212.321 19.4268 212.819 18.7068C213.33 17.9868 213.956 17.4202 214.696 17.0068C215.45 16.5935 216.331 16.3868 217.34 16.3868C217.609 16.3868 217.879 16.4002 218.148 16.4268C218.43 16.4535 218.679 16.5002 218.894 16.5668V22.3668C218.437 22.2335 217.973 22.1468 217.502 22.1068C217.044 22.0535 216.6 22.0268 216.17 22.0268C215.537 22.0268 214.918 22.1135 214.313 22.2868C213.707 22.4468 213.169 22.7002 212.698 23.0468C212.227 23.3802 211.857 23.8002 211.588 24.3068V38.6668H205.997ZM222.2 38.6668V16.8468H227.104L227.629 25.0668L227.347 23.4068C227.508 22.2068 227.811 21.0735 228.255 20.0068C228.712 18.9268 229.399 18.0535 230.314 17.3868C231.242 16.7202 232.487 16.3868 234.048 16.3868C235.797 16.3868 237.23 16.9002 238.347 17.9268C239.477 18.9402 240.17 20.5068 240.426 22.6268L240.506 23.3468V38.6668H234.915V26.2068C234.915 24.8868 234.794 23.8602 234.552 23.1268C234.323 22.3802 233.98 21.8535 233.523 21.5468C233.065 21.2402 232.493 21.0868 231.807 21.0868C230.879 21.0868 230.065 21.3668 229.365 21.9268C228.665 22.4868 228.14 23.1335 227.791 23.8668V38.6668H222.2ZM247.611 38.6668V26.2068C247.611 24.8868 247.49 23.8602 247.248 23.1268C247.019 22.3802 246.676 21.8535 246.218 21.5468C245.761 21.2402 245.189 21.0868 244.503 21.0868C243.574 21.0868 242.76 21.3668 242.06 21.9268C241.374 22.4868 240.856 23.1335 240.506 23.8668L240.426 25.0668L240.203 23.6468C240.338 22.4868 240.621 21.3535 241.051 20.2468C241.482 19.1268 242.148 18.2068 243.05 17.4868C243.965 16.7535 245.196 16.3868 246.743 16.3868C248.721 16.3868 250.289 17.0335 251.446 18.3268C252.617 19.6068 253.202 21.5668 253.202 24.2068V38.6668H247.611Z" fill="black"/>
<path d="M37.0039 4H10.092C6.37622 4 3.364 6.98477 3.364 10.6667V37.3333C3.364 41.0152 6.37622 44 10.092 44H37.0039C40.7197 44 43.7319 41.0152 43.7319 37.3333V10.6667C43.7319 6.98477 40.7197 4 37.0039 4Z" fill="#F53D00"/>
<path d="M9.38956 24.2442V21.569C10.7753 21.569 11.735 21.2968 12.2686 20.7523C12.8101 20.2078 13.0809 19.3436 13.0809 18.1599V15.9227C13.0809 14.3365 13.3158 13.0897 13.7857 12.1822C14.2635 11.2747 14.9126 10.6079 15.7329 10.1817C16.5612 9.75555 17.5168 9.48725 18.5999 9.37679C19.683 9.25842 20.8338 9.19922 22.0523 9.19922V13.4488C21.0967 13.4488 20.3799 13.5632 19.902 13.792C19.4322 14.0209 19.1176 14.3681 18.9583 14.8337C18.799 15.2993 18.7194 15.8872 18.7194 16.5974V19.6277C18.7194 20.2275 18.596 20.8036 18.3491 21.356C18.1022 21.9084 17.6482 22.4016 16.9872 22.8356C16.3262 23.2696 15.3825 23.6129 14.156 23.8654C12.9375 24.118 11.3487 24.2442 9.38956 24.2442ZM22.0523 39.0406C20.8338 39.0406 19.683 38.9815 18.5999 38.8629C17.5168 38.7525 16.5612 38.4842 15.7329 38.0582C14.9126 37.6319 14.2635 36.9652 13.7857 36.0575C13.3158 35.1502 13.0809 33.9032 13.0809 32.3171V30.0917C13.0809 28.9001 12.8101 28.036 12.2686 27.4994C11.735 26.9549 10.7753 26.6827 9.38956 26.6827V23.9956C11.3487 23.9956 12.9375 24.1258 14.156 24.3863C15.3825 24.6388 16.3262 24.9821 16.9872 25.4161C17.6482 25.8422 18.1022 26.3315 18.3491 26.8839C18.596 27.4363 18.7194 28.0124 18.7194 28.6121V31.6424C18.7194 32.3526 18.799 32.9406 18.9583 33.4062C19.1176 33.8719 19.4322 34.2189 19.902 34.4479C20.3799 34.6766 21.0967 34.7912 22.0523 34.7912V39.0406ZM9.38956 26.6827V21.569H14.156V26.6827H9.38956ZM23.68 24.2442V21.569C25.0657 21.569 26.0254 21.2968 26.5589 20.7523C27.1005 20.2078 27.3713 19.3436 27.3713 18.1599V15.9227C27.3713 14.3365 27.6062 13.0897 28.0761 12.1822C28.5539 11.2747 29.203 10.6079 30.0233 10.1817C30.8516 9.75555 31.8073 9.48725 32.8904 9.37679C33.9733 9.25842 35.1242 9.19922 36.3426 9.19922V13.4488C35.3872 13.4488 34.6703 13.5632 34.1923 13.792C33.7227 14.0209 33.408 14.3681 33.2487 14.8337C33.0894 15.2993 33.0098 15.8872 33.0098 16.5974V19.6277C33.0098 20.2275 32.8864 20.8036 32.6395 21.356C32.3926 21.9084 31.9387 22.4016 31.2776 22.8356C30.6166 23.2696 29.6729 23.6129 28.4464 23.8654C27.2279 24.118 25.6391 24.2442 23.68 24.2442ZM36.3426 39.0406C35.1242 39.0406 33.9733 38.9815 32.8904 38.8629C31.8073 38.7525 30.8516 38.4842 30.0233 38.0582C29.203 37.6319 28.5539 36.9652 28.0761 36.0575C27.6062 35.1502 27.3713 33.9032 27.3713 32.3171V30.0917C27.3713 28.9001 27.1005 28.036 26.5589 27.4994C26.0254 26.9549 25.0657 26.6827 23.68 26.6827V23.9956C25.6391 23.9956 27.2279 24.1258 28.4464 24.3863C29.6729 24.6388 30.6166 24.9821 31.2776 25.4161C31.9387 25.8422 32.3926 26.3315 32.6395 26.8839C32.8864 27.4363 33.0098 28.0124 33.0098 28.6121V31.6424C33.0098 32.3526 33.0894 32.9406 33.2487 33.4062C33.408 33.8719 33.7227 34.2189 34.1923 34.4479C34.6703 34.6766 35.3872 34.7912 36.3426 34.7912V39.0406ZM23.68 26.6827V21.569H28.4464V26.6827H23.68Z" fill="white"/>
</svg>
